<svg viewBox="0 0 3042 284" xmlns="http://www.w3.org/2000/svg" xml:space="preserve" style="fill-rule:evenodd;clip-rule:evenodd;stroke-linejoin:round;stroke-miterlimit:2"><path d="M238.32 184.544c-2.933 15.2-7.6 28.933-14 41.2-6.4 12.266-14.467 22.8-24.2 31.6-9.733 8.8-21 15.6-33.8 20.4-12.8 4.8-26.933 7.2-42.4 7.2-17.333 0-33.533-2.934-48.6-8.8-15.067-5.867-28.067-14.667-39-26.4-10.933-11.734-19.533-26.2-25.8-43.4-6.267-17.2-9.4-37.267-9.4-60.2 0-22.4 2.867-42.6 8.6-60.6s13.933-33.2 24.6-45.6c10.667-12.4 23.667-21.934 39-28.6 15.333-6.667 32.467-10 51.4-10 16.533 0 31.533 2.466 45 7.4 13.467 4.933 25.067 11.733 34.8 20.4 9.733 8.666 17.467 18.866 23.2 30.6 5.733 11.733 9.267 24.266 10.6 37.6h-55.6c-3.733-15.2-10.933-27-21.6-35.4-10.667-8.4-22.667-12.6-36-12.6-23.2 0-40.267 8.333-51.2 25-10.933 16.666-16.4 39.533-16.4 68.6 0 29.6 5.4 52.6 16.2 69 10.8 16.4 27 24.6 48.6 24.6 16.533 0 29.8-4.467 39.8-13.4 10-8.934 16.867-21.8 20.6-38.6h55.6zM373.92 237.344c9.867 0 19.2-1.8 28-5.4 8.8-3.6 16.467-9.067 23-16.4 6.533-7.334 11.667-16.734 15.4-28.2 3.733-11.467 5.6-25.067 5.6-40.8 0-31.467-6.133-55.334-18.4-71.6-12.267-16.267-30.133-24.4-53.6-24.4-23.467 0-41.467 8.133-54 24.4-12.533 16.266-18.8 40.133-18.8 71.6 0 31.466 6.333 54.466 19 69 12.667 14.533 30.6 21.8 53.8 21.8zm0 47.6c-41.067 0-72.6-12-94.6-36s-33-58.534-33-103.6c0-22.4 2.8-42.534 8.4-60.4 5.6-17.867 13.867-33 24.8-45.4 10.933-12.4 24.267-21.867 40-28.4 15.733-6.534 33.867-9.8 54.4-9.8 20.267 0 38.333 3.266 54.2 9.8 15.867 6.533 29.133 16.066 39.8 28.6 10.667 12.533 18.8 27.8 24.4 45.8 5.6 18 8.4 38.333 8.4 61 0 45.866-10.867 80.4-32.6 103.6-21.733 23.2-53.133 34.8-94.2 34.8zM723.12 275.744v-182l-49.6 182h-55.2l-49.2-181.2v181.2h-51.6v-265.6h81.6l48 194.8 48-194.8h80v265.6h-52zM795.52 10.144h55.6v265.6h-55.6zM1104.32 184.544c-2.933 15.2-7.6 28.933-14 41.2-6.4 12.266-14.467 22.8-24.2 31.6-9.733 8.8-21 15.6-33.8 20.4-12.8 4.8-26.933 7.2-42.4 7.2-17.333 0-33.533-2.934-48.6-8.8-15.067-5.867-28.067-14.667-39-26.4-10.933-11.734-19.533-26.2-25.8-43.4-6.267-17.2-9.4-37.267-9.4-60.2 0-22.4 2.867-42.6 8.6-60.6s13.933-33.2 24.6-45.6c10.667-12.4 23.667-21.934 39-28.6 15.333-6.667 32.467-10 51.4-10 16.533 0 31.533 2.466 45 7.4 13.467 4.933 25.067 11.733 34.8 20.4 9.733 8.666 17.467 18.866 23.2 30.6 5.733 11.733 9.267 24.266 10.6 37.6h-55.6c-3.733-15.2-10.933-27-21.6-35.4-10.667-8.4-22.667-12.6-36-12.6-23.2 0-40.267 8.333-51.2 25-10.933 16.666-16.4 39.533-16.4 68.6 0 29.6 5.4 52.6 16.2 69 10.8 16.4 27 24.6 48.6 24.6 16.533 0 29.8-4.467 39.8-13.4 10-8.934 16.867-21.8 20.6-38.6h55.6zM1239.52 230.544c12.8 0 22.8-3.6 30-10.8 7.2-7.2 10.8-16.267 10.8-27.2 0-11.734-3.533-20.267-10.6-25.6-7.067-5.334-16.867-8-29.4-8h-71.2v71.6h70.4zm-70.4-174.4v57.6h70c22.4 0 33.6-9.6 33.6-28.8 0-10.134-2.867-17.467-8.6-22-5.733-4.534-15.133-6.8-28.2-6.8h-66.8zm-53.6 219.6v-265.6h130.8c26.133 0 46 6.466 59.6 19.4 13.6 12.933 20.4 30.6 20.4 53 0 11.466-3.067 21.666-9.2 30.6-6.133 8.933-13.867 15.266-23.2 19a77.175 77.175 0 0 1 15.8 8.2c4.933 3.333 9.2 7.6 12.8 12.8 3.6 5.2 6.467 11.333 8.6 18.4 2.133 7.066 3.2 15.4 3.2 25 0 24.266-8.133 43.533-24.4 57.8-16.267 14.266-41.2 21.4-74.8 21.4h-119.6zM1469.52 237.344c9.867 0 19.2-1.8 28-5.4 8.8-3.6 16.467-9.067 23-16.4 6.533-7.334 11.667-16.734 15.4-28.2 3.733-11.467 5.6-25.067 5.6-40.8 0-31.467-6.133-55.334-18.4-71.6-12.267-16.267-30.133-24.4-53.6-24.4-23.467 0-41.467 8.133-54 24.4-12.533 16.266-18.8 40.133-18.8 71.6 0 31.466 6.333 54.466 19 69 12.667 14.533 30.6 21.8 53.8 21.8zm0 47.6c-41.067 0-72.6-12-94.6-36s-33-58.534-33-103.6c0-22.4 2.8-42.534 8.4-60.4 5.6-17.867 13.867-33 24.8-45.4 10.933-12.4 24.267-21.867 40-28.4 15.733-6.534 33.867-9.8 54.4-9.8 20.267 0 38.333 3.266 54.2 9.8 15.867 6.533 29.133 16.066 39.8 28.6 10.667 12.533 18.8 27.8 24.4 45.8 5.6 18 8.4 38.333 8.4 61 0 45.866-10.867 80.4-32.6 103.6-21.733 23.2-53.133 34.8-94.2 34.8zM1737.52 237.344c9.867 0 19.2-1.8 28-5.4 8.8-3.6 16.467-9.067 23-16.4 6.533-7.334 11.667-16.734 15.4-28.2 3.733-11.467 5.6-25.067 5.6-40.8 0-31.467-6.133-55.334-18.4-71.6-12.267-16.267-30.133-24.4-53.6-24.4-23.467 0-41.467 8.133-54 24.4-12.533 16.266-18.8 40.133-18.8 71.6 0 31.466 6.333 54.466 19 69 12.667 14.533 30.6 21.8 53.8 21.8zm0 47.6c-41.067 0-72.6-12-94.6-36s-33-58.534-33-103.6c0-22.4 2.8-42.534 8.4-60.4 5.6-17.867 13.867-33 24.8-45.4 10.933-12.4 24.267-21.867 40-28.4 15.733-6.534 33.867-9.8 54.4-9.8 20.267 0 38.333 3.266 54.2 9.8 15.867 6.533 29.133 16.066 39.8 28.6 10.667 12.533 18.8 27.8 24.4 45.8 5.6 18 8.4 38.333 8.4 61 0 45.866-10.867 80.4-32.6 103.6-21.733 23.2-53.133 34.8-94.2 34.8zM2044.32 275.744l-78.8-119.6-29.6 29.2v90.4h-54.8v-265.6h54.8v108l101.6-108h72l-104.8 104.8 107.2 160.8h-67.6z" style="fill:#fff;fill-rule:nonzero"/><path d="M2323.12 184.544c-2.933 15.2-7.6 28.933-14 41.2-6.4 12.266-14.467 22.8-24.2 31.6-9.733 8.8-21 15.6-33.8 20.4-12.8 4.8-26.933 7.2-42.4 7.2-17.333 0-33.533-2.934-48.6-8.8-15.067-5.867-28.067-14.667-39-26.4-10.933-11.734-19.533-26.2-25.8-43.4-6.267-17.2-9.4-37.267-9.4-60.2 0-22.4 2.867-42.6 8.6-60.6s13.933-33.2 24.6-45.6c10.667-12.4 23.667-21.934 39-28.6 15.333-6.667 32.467-10 51.4-10 16.533 0 31.533 2.466 45 7.4 13.467 4.933 25.067 11.733 34.8 20.4 9.733 8.666 17.467 18.866 23.2 30.6 5.733 11.733 9.267 24.266 10.6 37.6h-55.6c-3.733-15.2-10.933-27-21.6-35.4-10.667-8.4-22.667-12.6-36-12.6-23.2 0-40.267 8.333-51.2 25-10.933 16.666-16.4 39.533-16.4 68.6 0 29.6 5.4 52.6 16.2 69 10.8 16.4 27 24.6 48.6 24.6 16.533 0 29.8-4.467 39.8-13.4 10-8.934 16.867-21.8 20.6-38.6h55.6zM2458.72 237.344c9.867 0 19.2-1.8 28-5.4 8.8-3.6 16.467-9.067 23-16.4 6.533-7.334 11.667-16.734 15.4-28.2 3.733-11.467 5.6-25.067 5.6-40.8 0-31.467-6.133-55.334-18.4-71.6-12.267-16.267-30.133-24.4-53.6-24.4-23.467 0-41.467 8.133-54 24.4-12.533 16.266-18.8 40.133-18.8 71.6 0 31.466 6.333 54.466 19 69 12.667 14.533 30.6 21.8 53.8 21.8zm0 47.6c-41.067 0-72.6-12-94.6-36s-33-58.534-33-103.6c0-22.4 2.8-42.534 8.4-60.4 5.6-17.867 13.867-33 24.8-45.4 10.933-12.4 24.267-21.867 40-28.4 15.733-6.534 33.867-9.8 54.4-9.8 20.267 0 38.333 3.266 54.2 9.8 15.867 6.533 29.133 16.066 39.8 28.6 10.667 12.533 18.8 27.8 24.4 45.8 5.6 18 8.4 38.333 8.4 61 0 45.866-10.867 80.4-32.6 103.6-21.733 23.2-53.133 34.8-94.2 34.8zM2656.32 56.144v70.8h69.6c14.933 0 25.467-3.334 31.6-10 6.133-6.667 9.2-15.067 9.2-25.2 0-10.4-3-18.934-9-25.6-6-6.667-15.933-10-29.8-10h-71.6zm100.8 219.6v-68.4c0-12.8-2.933-21.934-8.8-27.4-5.867-5.467-16.8-8.2-32.8-8.2h-59.2v104h-54v-265.6h134.8c12.267 0 23.4 1.933 33.4 5.8 10 3.866 18.6 9.2 25.8 16 7.2 6.8 12.733 14.933 16.6 24.4 3.867 9.466 5.8 19.666 5.8 30.6 0 14.4-3.4 27.133-10.2 38.2-6.8 11.066-16.6 18.866-29.4 23.4 11.733 3.733 20.067 9.466 25 17.2 4.933 7.733 7.4 19.333 7.4 34.8v75.2h-54.4zM2833.52 275.744v-265.6h195.2v46.4h-141.2v56.8h130v46.8h-130v68.4h147.6v47.2h-201.6z" style="fill:#fff;fill-rule:nonzero"/></svg>
